<svg width="100%" height="100%" viewBox="0 0 32 9" version="1.1" xmlns="http://www.w3.org/2000/svg" xmlns:xlink="http://www.w3.org/1999/xlink" xml:space="preserve" style="fill-rule:evenodd;clip-rule:evenodd;stroke-linejoin:round;stroke-miterlimit:2;">
    <g id="SVGRepo_iconCarrier">
        <g>
            <g>
                <rect x="0" y="0" width="0.906" height="7.245"/>
                <path d="M4.981,2.717L4.981,4.075L5.381,4.075L5.434,2.717L4.981,2.717Z"/>
                <path d="M1.358,0L1.358,7.245L6.258,7.245C6.553,7.245 6.792,7.04 6.792,6.787L6.792,0.458C6.792,0.205 6.553,0 6.258,0L1.358,0ZM5.91,4.099L5.47,4.099L5.462,4.556L3.58,4.556L3.588,4.094L3.15,4.094L3.15,3.165L3.584,3.165L3.584,2.693L4.961,2.689L4.961,2.287L3.181,2.287L3.181,2.739L2.73,2.739L2.73,4.509L3.188,4.509L3.188,4.969L5.002,4.969L5.002,5.44L3.152,5.44L3.152,5.009L2.698,5.009L2.698,4.542L2.243,4.542L2.243,2.713L2.705,2.713L2.705,2.252L3.141,2.252L3.141,1.783L4.995,1.783L4.995,2.245L5.439,2.245L5.439,2.694L5.91,2.694L5.91,4.099Z"/>
                <rect x="3.622" y="3.17" width="0.906" height="0.906"/>
            </g>
        </g>
    </g>
    <g>
        <path d="M11.034,4.418C11.034,4.736 10.96,4.966 10.813,5.108C10.665,5.25 10.502,5.321 10.324,5.321L8.607,5.321C8.607,5.456 8.686,5.57 8.846,5.661C9.005,5.753 9.177,5.799 9.36,5.799C9.491,5.799 9.614,5.789 9.73,5.77C9.846,5.75 9.93,5.731 9.983,5.712L10.063,5.683C10.179,5.63 10.275,5.603 10.353,5.603C10.507,5.603 10.64,5.712 10.751,5.929C10.814,6.059 10.845,6.17 10.845,6.261C10.845,6.69 10.331,6.905 9.302,6.905C8.945,6.905 8.627,6.843 8.35,6.721C8.072,6.598 7.856,6.436 7.701,6.236C7.547,6.036 7.432,5.825 7.357,5.603C7.282,5.382 7.245,5.155 7.245,4.924C7.245,4.316 7.442,3.831 7.835,3.467C8.229,3.103 8.72,2.921 9.309,2.921C9.546,2.921 9.763,2.954 9.962,3.019C10.16,3.084 10.324,3.168 10.454,3.272C10.585,3.375 10.694,3.495 10.784,3.63C10.873,3.765 10.937,3.898 10.976,4.031C11.014,4.163 11.034,4.292 11.034,4.418ZM9.505,4.664C9.689,4.664 9.78,4.586 9.78,4.432C9.78,4.321 9.738,4.232 9.654,4.165C9.569,4.097 9.447,4.063 9.288,4.063C9.133,4.063 8.979,4.127 8.824,4.255C8.67,4.383 8.592,4.519 8.592,4.664L9.505,4.664Z" style="fill-rule:nonzero;"/>
        <path d="M12.91,6.876C12.422,6.876 11.963,6.741 11.534,6.471C11.442,6.413 11.396,6.329 11.396,6.218C11.396,6.078 11.488,5.881 11.671,5.625C11.724,5.543 11.807,5.502 11.918,5.502C12.043,5.502 12.19,5.553 12.36,5.654C12.596,5.789 12.797,5.857 12.961,5.857C13.255,5.857 13.403,5.799 13.403,5.683C13.403,5.635 13.357,5.594 13.265,5.56C13.173,5.526 13.057,5.5 12.917,5.481C12.777,5.461 12.626,5.422 12.465,5.361C12.303,5.301 12.152,5.227 12.012,5.141C11.872,5.054 11.756,4.918 11.664,4.732C11.572,4.547 11.526,4.326 11.526,4.071C11.526,3.309 12.05,2.928 13.098,2.928C13.441,2.928 13.794,3.01 14.156,3.174C14.325,3.251 14.41,3.357 14.41,3.492C14.41,3.589 14.359,3.719 14.258,3.883C14.147,4.056 14.035,4.143 13.924,4.143C13.866,4.143 13.784,4.119 13.678,4.071C13.47,3.974 13.275,3.926 13.091,3.926C12.806,3.926 12.664,3.979 12.664,4.085C12.664,4.162 12.711,4.224 12.805,4.269C12.899,4.315 13.018,4.347 13.16,4.363C13.303,4.38 13.456,4.413 13.62,4.461C13.784,4.509 13.938,4.568 14.08,4.638C14.223,4.708 14.341,4.826 14.435,4.993C14.529,5.159 14.576,5.362 14.576,5.603C14.576,5.864 14.529,6.082 14.435,6.258C14.341,6.434 14.208,6.564 14.037,6.648C13.865,6.733 13.691,6.792 13.515,6.825C13.339,6.859 13.137,6.876 12.91,6.876Z" style="fill-rule:nonzero;"/>
        <path d="M17.293,4.902L18.257,5.697C18.32,5.75 18.367,5.791 18.398,5.82C18.429,5.849 18.46,5.888 18.489,5.936C18.518,5.984 18.532,6.032 18.532,6.081C18.532,6.196 18.457,6.353 18.307,6.551C18.143,6.753 17.989,6.854 17.844,6.854C17.742,6.854 17.614,6.792 17.46,6.666L17.431,6.645L17.358,6.594C17.247,6.502 17.076,6.342 16.844,6.113C16.612,5.884 16.436,5.722 16.315,5.625L16.315,6.182C16.315,6.293 16.312,6.376 16.304,6.431C16.297,6.487 16.275,6.549 16.239,6.619C16.203,6.689 16.139,6.739 16.047,6.768C15.955,6.796 15.832,6.811 15.678,6.811C15.528,6.811 15.407,6.796 15.315,6.768C15.224,6.739 15.16,6.688 15.123,6.616C15.087,6.543 15.065,6.48 15.058,6.424C15.051,6.369 15.047,6.286 15.047,6.175L15.047,1.844C15.047,1.733 15.051,1.65 15.058,1.594C15.065,1.539 15.087,1.475 15.123,1.403C15.16,1.33 15.224,1.28 15.315,1.251C15.407,1.222 15.53,1.207 15.685,1.207C15.806,1.207 15.908,1.22 15.993,1.244C16.077,1.268 16.14,1.297 16.181,1.33C16.222,1.364 16.254,1.414 16.275,1.479C16.297,1.544 16.309,1.599 16.312,1.645C16.314,1.691 16.315,1.759 16.315,1.851L16.315,4.143C16.402,4.071 16.534,3.948 16.71,3.774C16.886,3.601 17.018,3.478 17.105,3.405L17.192,3.348C17.361,3.217 17.494,3.152 17.59,3.152C17.735,3.152 17.885,3.246 18.039,3.434C18.199,3.637 18.278,3.793 18.278,3.904C18.278,4.015 18.189,4.145 18.01,4.295L17.293,4.902Z" style="fill-rule:nonzero;"/>
        <path d="M22.777,1.511C22.903,1.511 23.007,1.523 23.089,1.547C23.171,1.571 23.234,1.6 23.277,1.634C23.321,1.668 23.353,1.717 23.375,1.782C23.397,1.847 23.409,1.903 23.411,1.949C23.414,1.994 23.415,2.063 23.415,2.155L23.415,6.167C23.415,6.278 23.411,6.361 23.404,6.417C23.397,6.472 23.374,6.536 23.335,6.608C23.297,6.681 23.231,6.731 23.14,6.76C23.048,6.789 22.925,6.804 22.77,6.804C22.645,6.804 22.541,6.792 22.459,6.768C22.377,6.743 22.314,6.715 22.27,6.681C22.227,6.647 22.194,6.598 22.173,6.533C22.151,6.467 22.139,6.412 22.136,6.366C22.134,6.32 22.133,6.252 22.133,6.16L22.133,4.692L20.213,4.692L20.213,6.167C20.213,6.278 20.209,6.361 20.202,6.417C20.195,6.472 20.172,6.536 20.133,6.608C20.094,6.681 20.029,6.731 19.938,6.76C19.846,6.789 19.723,6.804 19.568,6.804C19.442,6.804 19.339,6.792 19.257,6.768C19.174,6.743 19.112,6.715 19.068,6.681C19.025,6.647 18.992,6.598 18.97,6.533C18.949,6.467 18.937,6.412 18.934,6.366C18.932,6.32 18.93,6.252 18.93,6.16L18.93,2.147C18.93,2.037 18.934,1.953 18.941,1.898C18.949,1.843 18.972,1.779 19.01,1.706C19.049,1.634 19.114,1.583 19.206,1.555C19.298,1.526 19.421,1.511 19.575,1.511C19.701,1.511 19.805,1.523 19.887,1.547C19.969,1.571 20.032,1.6 20.075,1.634C20.119,1.668 20.151,1.717 20.173,1.782C20.195,1.847 20.207,1.903 20.209,1.949C20.212,1.994 20.213,2.063 20.213,2.155L20.213,3.63L22.133,3.63L22.133,2.147C22.133,2.037 22.136,1.953 22.144,1.898C22.151,1.843 22.174,1.779 22.212,1.706C22.251,1.634 22.316,1.583 22.408,1.555C22.5,1.526 22.623,1.511 22.777,1.511Z" style="fill-rule:nonzero;"/>
        <path d="M25.871,2.914C26.402,2.914 26.868,3.101 27.269,3.474C27.67,3.848 27.871,4.324 27.871,4.902C27.871,5.302 27.767,5.658 27.559,5.969C27.351,6.279 27.099,6.508 26.802,6.655C26.505,6.802 26.199,6.876 25.885,6.876C25.562,6.876 25.25,6.798 24.951,6.641C24.651,6.484 24.399,6.253 24.194,5.947C23.989,5.641 23.886,5.295 23.886,4.909C23.886,4.331 24.089,3.854 24.494,3.478C24.9,3.102 25.359,2.914 25.871,2.914ZM25.4,5.426C25.555,5.544 25.712,5.603 25.871,5.603C26.03,5.603 26.19,5.543 26.349,5.423C26.508,5.302 26.588,5.124 26.588,4.888C26.588,4.651 26.513,4.476 26.364,4.36C26.214,4.244 26.047,4.186 25.864,4.186C25.699,4.186 25.543,4.247 25.393,4.367C25.243,4.488 25.168,4.664 25.168,4.895C25.168,5.131 25.245,5.308 25.4,5.426Z" style="fill-rule:nonzero;"/>
        <path d="M31.391,2.986C31.536,2.986 31.652,3.001 31.739,3.029C31.826,3.058 31.888,3.108 31.924,3.178C31.96,3.248 31.982,3.309 31.989,3.362C31.996,3.415 32,3.497 32,3.608L32,6.601C32,7.156 31.807,7.603 31.42,7.942C31.034,8.282 30.599,8.452 30.116,8.452C29.749,8.452 29.399,8.363 29.066,8.185C28.733,8.006 28.566,7.845 28.566,7.7C28.566,7.522 28.631,7.363 28.762,7.223L28.783,7.201C28.875,7.1 28.946,7.03 28.997,6.992C29.048,6.953 29.107,6.934 29.175,6.934C29.242,6.934 29.313,6.963 29.388,7.021C29.463,7.078 29.562,7.137 29.685,7.198C29.808,7.258 29.959,7.288 30.138,7.288C30.322,7.288 30.471,7.216 30.587,7.071C30.703,6.927 30.761,6.753 30.761,6.551L30.761,6.334L30.747,6.348C30.742,6.358 30.733,6.37 30.721,6.384C30.709,6.399 30.694,6.416 30.674,6.435C30.655,6.454 30.632,6.474 30.605,6.493C30.579,6.512 30.55,6.531 30.518,6.551C30.487,6.57 30.45,6.588 30.406,6.605C30.363,6.622 30.317,6.637 30.269,6.652C30.22,6.666 30.166,6.677 30.106,6.684C30.045,6.692 29.984,6.695 29.921,6.695C29.496,6.695 29.108,6.511 28.758,6.142C28.408,5.773 28.233,5.338 28.233,4.837C28.233,4.355 28.409,3.928 28.762,3.557C29.114,3.186 29.501,3.001 29.921,3.001C30.085,3.001 30.235,3.031 30.37,3.091C30.505,3.151 30.598,3.207 30.649,3.257C30.7,3.308 30.739,3.355 30.768,3.398C30.783,3.263 30.832,3.161 30.917,3.091C31.001,3.021 31.16,2.986 31.391,2.986ZM30.109,5.466C30.283,5.466 30.428,5.402 30.544,5.274C30.66,5.147 30.718,5.006 30.718,4.852C30.718,4.702 30.662,4.561 30.551,4.429C30.44,4.296 30.288,4.23 30.095,4.23C29.911,4.23 29.761,4.295 29.645,4.425C29.53,4.555 29.472,4.697 29.472,4.852C29.472,5.011 29.533,5.153 29.656,5.278C29.779,5.403 29.93,5.466 30.109,5.466Z" style="fill-rule:nonzero;"/>
    </g>
</svg>
